<mxfile host="65bd71144e">
    <diagram id="FZsjKsAyXFP-kN_7O33l" name="uml-sequence">
        <mxGraphModel dx="1098" dy="904" grid="1" gridSize="10" guides="1" tooltips="1" connect="1" arrows="1" fold="1" page="1" pageScale="1" pageWidth="850" pageHeight="1100" math="0" shadow="0">
            <root>
                <mxCell id="0"/>
                <mxCell id="1" parent="0"/>
                <mxCell id="2" value="" style="shape=umlLifeline;participant=umlActor;perimeter=lifelinePerimeter;whiteSpace=wrap;html=1;container=1;collapsible=0;recursiveResize=0;verticalAlign=top;spacingTop=36;outlineConnect=0;" parent="1" vertex="1">
                    <mxGeometry x="110" y="250" width="20" height="300" as="geometry"/>
                </mxCell>
                <mxCell id="3" value=":VSCode Frontend" style="shape=umlLifeline;perimeter=lifelinePerimeter;whiteSpace=wrap;html=1;container=1;collapsible=0;recursiveResize=0;outlineConnect=0;" parent="1" vertex="1">
                    <mxGeometry x="220" y="250" width="100" height="300" as="geometry"/>
                </mxCell>
                <mxCell id="6" value="" style="html=1;points=[];perimeter=orthogonalPerimeter;" parent="3" vertex="1">
                    <mxGeometry x="45" y="80" width="10" height="220" as="geometry"/>
                </mxCell>
                <mxCell id="4" value=":VSCode Backend" style="shape=umlLifeline;perimeter=lifelinePerimeter;whiteSpace=wrap;html=1;container=1;collapsible=0;recursiveResize=0;outlineConnect=0;" parent="1" vertex="1">
                    <mxGeometry x="510" y="250" width="100" height="300" as="geometry"/>
                </mxCell>
                <mxCell id="8" value="" style="html=1;points=[];perimeter=orthogonalPerimeter;" parent="4" vertex="1">
                    <mxGeometry x="45" y="140" width="10" height="160" as="geometry"/>
                </mxCell>
                <mxCell id="5" value=":VSCode TextMate обработчик" style="shape=umlLifeline;perimeter=lifelinePerimeter;whiteSpace=wrap;html=1;container=1;collapsible=0;recursiveResize=0;outlineConnect=0;" parent="1" vertex="1">
                    <mxGeometry x="665" y="250" width="100" height="300" as="geometry"/>
                </mxCell>
                <mxCell id="22" value="" style="html=1;points=[];perimeter=orthogonalPerimeter;" parent="5" vertex="1">
                    <mxGeometry x="45" y="140" width="10" height="60" as="geometry"/>
                </mxCell>
                <mxCell id="7" value="Открытие файла" style="html=1;verticalAlign=bottom;startArrow=oval;endArrow=block;startSize=8;" parent="1" source="2" target="6" edge="1">
                    <mxGeometry relative="1" as="geometry">
                        <mxPoint x="205" y="330" as="sourcePoint"/>
                        <Array as="points">
                            <mxPoint x="190" y="330"/>
                        </Array>
                    </mxGeometry>
                </mxCell>
                <mxCell id="9" value="Новый файл открыт" style="html=1;verticalAlign=bottom;endArrow=block;entryX=0;entryY=0;" parent="1" source="6" target="8" edge="1">
                    <mxGeometry relative="1" as="geometry">
                        <mxPoint x="350" y="350" as="sourcePoint"/>
                    </mxGeometry>
                </mxCell>
                <mxCell id="11" value=":VSCode LSP-шина" style="shape=umlLifeline;perimeter=lifelinePerimeter;whiteSpace=wrap;html=1;container=1;collapsible=0;recursiveResize=0;outlineConnect=0;" parent="1" vertex="1">
                    <mxGeometry x="815" y="250" width="100" height="300" as="geometry"/>
                </mxCell>
                <mxCell id="27" value="" style="html=1;points=[];perimeter=orthogonalPerimeter;" parent="11" vertex="1">
                    <mxGeometry x="45" y="220" width="10" height="70" as="geometry"/>
                </mxCell>
                <mxCell id="12" value=":Языковой сервер" style="shape=umlLifeline;perimeter=lifelinePerimeter;whiteSpace=wrap;html=1;container=1;collapsible=0;recursiveResize=0;outlineConnect=0;" parent="1" vertex="1">
                    <mxGeometry x="955" y="250" width="100" height="300" as="geometry"/>
                </mxCell>
                <mxCell id="30" value="" style="html=1;points=[];perimeter=orthogonalPerimeter;" parent="12" vertex="1">
                    <mxGeometry x="45" y="230" width="10" height="60" as="geometry"/>
                </mxCell>
                <mxCell id="10" value="Информция о токенах" style="html=1;verticalAlign=bottom;endArrow=open;dashed=1;endSize=8;exitX=0;exitY=0.95;" parent="1" source="8" target="6" edge="1">
                    <mxGeometry relative="1" as="geometry">
                        <mxPoint x="350" y="426" as="targetPoint"/>
                    </mxGeometry>
                </mxCell>
                <mxCell id="13" value="Отображение файла&lt;br&gt;(полное)" style="html=1;verticalAlign=bottom;endArrow=open;dashed=1;endSize=8;" parent="1" source="6" target="2" edge="1">
                    <mxGeometry relative="1" as="geometry">
                        <mxPoint x="285" y="512" as="targetPoint"/>
                        <mxPoint x="430" y="512" as="sourcePoint"/>
                        <Array as="points">
                            <mxPoint x="200" y="550"/>
                        </Array>
                    </mxGeometry>
                </mxCell>
                <mxCell id="14" value=":Хранилище конфигурации" style="shape=umlLifeline;perimeter=lifelinePerimeter;whiteSpace=wrap;html=1;container=1;collapsible=0;recursiveResize=0;outlineConnect=0;" parent="1" vertex="1">
                    <mxGeometry x="370" y="250" width="100" height="300" as="geometry"/>
                </mxCell>
                <mxCell id="18" value="" style="html=1;points=[];perimeter=orthogonalPerimeter;" parent="14" vertex="1">
                    <mxGeometry x="45" y="80" width="10" height="30" as="geometry"/>
                </mxCell>
                <mxCell id="19" value="Запрос параметров &lt;br&gt;визуализации" style="html=1;verticalAlign=bottom;endArrow=block;entryX=0;entryY=0;" parent="1" source="6" target="18" edge="1">
                    <mxGeometry x="0.0714" relative="1" as="geometry">
                        <mxPoint x="935" y="460" as="sourcePoint"/>
                        <mxPoint as="offset"/>
                    </mxGeometry>
                </mxCell>
                <mxCell id="20" value="Параметры &lt;br&gt;визуализации" style="html=1;verticalAlign=bottom;endArrow=open;dashed=1;endSize=8;exitX=0;exitY=0.95;" parent="1" source="18" target="6" edge="1">
                    <mxGeometry x="0.0714" y="1" relative="1" as="geometry">
                        <mxPoint x="935" y="536" as="targetPoint"/>
                        <mxPoint as="offset"/>
                    </mxGeometry>
                </mxCell>
                <mxCell id="23" value="Текст файла + &lt;br&gt;язык файла" style="html=1;verticalAlign=bottom;endArrow=block;entryX=0;entryY=0;" parent="1" source="8" target="22" edge="1">
                    <mxGeometry relative="1" as="geometry">
                        <mxPoint x="640" y="390" as="sourcePoint"/>
                    </mxGeometry>
                </mxCell>
                <mxCell id="24" value="Карта областей TextMate" style="html=1;verticalAlign=bottom;endArrow=open;dashed=1;endSize=8;exitX=0;exitY=0.95;" parent="1" source="22" target="8" edge="1">
                    <mxGeometry relative="1" as="geometry">
                        <mxPoint x="640" y="466" as="targetPoint"/>
                    </mxGeometry>
                </mxCell>
                <mxCell id="25" value="Информция о токенах" style="html=1;verticalAlign=bottom;endArrow=open;dashed=1;endSize=8;" parent="1" source="8" target="6" edge="1">
                    <mxGeometry relative="1" as="geometry">
                        <mxPoint x="285" y="464.5" as="targetPoint"/>
                        <mxPoint x="430" y="464.5" as="sourcePoint"/>
                        <Array as="points">
                            <mxPoint x="420" y="460"/>
                        </Array>
                    </mxGeometry>
                </mxCell>
                <mxCell id="26" value="Отображение файла&lt;br&gt;(упрощённое)" style="html=1;verticalAlign=bottom;endArrow=open;dashed=1;endSize=8;" parent="1" source="6" target="2" edge="1">
                    <mxGeometry relative="1" as="geometry">
                        <mxPoint x="129.81034482758616" y="550" as="targetPoint"/>
                        <mxPoint x="275" y="550" as="sourcePoint"/>
                        <Array as="points">
                            <mxPoint x="200" y="460"/>
                        </Array>
                    </mxGeometry>
                </mxCell>
                <mxCell id="28" value="Имя файла + инцормация о рабочей директории" style="html=1;verticalAlign=bottom;endArrow=block;entryX=0;entryY=0;" parent="1" source="8" target="27" edge="1">
                    <mxGeometry relative="1" as="geometry">
                        <mxPoint x="790" y="460" as="sourcePoint"/>
                    </mxGeometry>
                </mxCell>
                <mxCell id="31" value="Имя файла + &lt;br&gt;запрос подсветки &lt;br&gt;синтаксиса" style="html=1;verticalAlign=bottom;endArrow=block;entryX=0;entryY=0;" parent="1" source="27" target="30" edge="1">
                    <mxGeometry relative="1" as="geometry">
                        <mxPoint x="930" y="465" as="sourcePoint"/>
                    </mxGeometry>
                </mxCell>
                <mxCell id="32" value="Карта распознанных &lt;br&gt;токенов" style="html=1;verticalAlign=bottom;endArrow=open;dashed=1;endSize=8;exitX=0;exitY=0.95;" parent="1" source="30" target="27" edge="1">
                    <mxGeometry relative="1" as="geometry">
                        <mxPoint x="930" y="541" as="targetPoint"/>
                    </mxGeometry>
                </mxCell>
                <mxCell id="29" value="Карта распознанных &lt;br&gt;токенов во &lt;br&gt;внутреннем &lt;br&gt;формате" style="html=1;verticalAlign=bottom;endArrow=open;dashed=1;endSize=8;exitX=0;exitY=0.95;" parent="1" source="27" target="8" edge="1">
                    <mxGeometry x="0.3559" relative="1" as="geometry">
                        <mxPoint x="790" y="536" as="targetPoint"/>
                        <mxPoint as="offset"/>
                    </mxGeometry>
                </mxCell>
            </root>
        </mxGraphModel>
    </diagram>
</mxfile>